<svg id="Layer_1" data-name="Layer 1" xmlns="http://www.w3.org/2000/svg" xmlns:xlink="http://www.w3.org/1999/xlink" viewBox="0 0 532.66 413.02"><defs><style>.cls-1{font-size:63.26px;font-family:Baloo-Regular, Baloo;}.cls-1,.cls-5{fill:#fff;}.cls-2{letter-spacing:0em;}.cls-3{letter-spacing:0em;}.cls-4{letter-spacing:0em;}.cls-5{font-size:37.56px;font-family:Geneva;letter-spacing:0.09em;}.cls-6{fill:url(#linear-gradient);}</style><linearGradient id="linear-gradient" x1="164.66" y1="206.51" x2="512.77" y2="206.51" gradientUnits="userSpaceOnUse"><stop offset="0" stop-color="#53449b"/><stop offset="0.52" stop-color="#de4599"/><stop offset="1" stop-color="#f48226"/></linearGradient></defs><text class="cls-1" transform="translate(52.57 216.3)"><tspan class="cls-2">S</tspan><tspan x="35.11" y="0">OUND</tspan><tspan class="cls-3" x="206.68" y="0">E</tspan><tspan class="cls-4" x="241.6" y="0">MIC</tspan></text><text class="cls-5" transform="translate(275.04 255.72)">social</text><path class="cls-6" d="M209.13,255.68l-43.32,13.06-1.15-3.82L208,251.87Zm.4,1.42-31,11.29,1.28,3.5,31-11.28Zm2.3,5.46-45.35,18.53,1.63,4,45.35-18.53Zm2.6,5.57-18.36,8.23,1.51,3.39L216,271.51Zm1.92,5.43-10.58,5.5,1.71,3.29,10.58-5.5Zm2.62,5.21-14.82,8.55,1.85,3.21L220.82,282Zm3,5L199,298.78l2,3.1L224,286.82Zm3.26,5.06-10.32,7.55,2.19,3,10.32-7.55Zm3.27,4.64L200.89,315.9l2.34,2.87L230.8,296.3Zm3.86,4.42-12.6,11.6,2.51,2.73,12.6-11.6Zm4,4.42-9.48,9.48,2.62,2.62,9.48-9.48Zm3.86,4.32-44.48,47.87,2.72,2.52,44.47-47.87Zm4.37,4.18-49.26,58.88,2.85,2.38,49.25-58.88Zm4.4,3.79L235.28,332.3l2.94,2.26,13.62-17.76Zm4.8,3.48L245,330.44l3,2.13,8.72-12.4Zm4.79,3.48-7.05,11,3.12,2,7.05-11Zm4.92,3.26L239.3,366.54l3.21,1.85,24.12-41.77Zm5.26,3L240.9,384.37l3.58,1.76,27.77-56.65Zm4.93,2.35-3.51,8.33,3.43,1.44,3.51-8.32Zm5.53,2.1-8,21.19,4,1.52,8-21.19Zm5.84,1.89-9.89,29.18,3.51,1.19,9.9-29.18Zm5.29,2.28-2.95,10.71,3.58,1,2.95-10.71Zm5.6,1.64-3.12,13.62,3.61.83,3.12-13.63Zm5.64,1.2-3.63,21.62,3.66.62,3.63-21.63Zm5.93,1.05L304,369.46l3.69.44,3.43-29.23Zm5.62.77-2.57,39.75,3.71.24,2.56-39.75Zm5.87.18-.15,31.56,3.71,0,.15-31.56Zm5.93.11.74,20.14,3.71-.13-.75-20.15Zm5.78.11.9,12.18,3.7-.27-.9-12.18Zm6-.36,3.14,24.83,3.68-.47-3.14-24.82Zm5.77-.64,9.05,53.41,3.66-.62-9-53.41Zm5.83-1.15,3.18,15,3.63-.77-3.19-15Zm5.8-1.14,3.71,14.35,3.59-.92-3.71-14.36Zm5.74-1.39L365.75,356l3.54-1.09-5.93-19.28Zm6.07-1.1,4.42,12.3,3.75-1.35-4.42-12.3Zm5.27-1.54,6,14,3.43-1.46-6-14Zm5.2-2.87,5.09,10.8,3.9-1.84-5.09-10.8Zm5.42-2.89,13,25.31,3.3-1.69-13-25.31Zm5.32-2.2,21,35.58,3.2-1.89-21-35.58Zm5.07-2.89,29,44.62,3.11-2-29-44.62ZM397,320l39.12,53.12,3-2.2-39.12-53.12Zm4.88-3.52,30.63,37.55,2.88-2.34L404.7,314.15Zm4.63-3.5L428,336.71l2.75-2.49L409.2,310.51Zm4.05-4.1L425,323.06l2.59-2.66L413.1,306.25Zm4.2-4.17,12.23,11,2.48-2.76-12.23-11Zm4.11-4.08,6.79,5.67,2.38-2.85-6.8-5.67Zm3.94-4.59,8,6,2.22-3-8-6Zm3.55-4.59,14.32,9.82,2.09-3.05-14.31-9.83Zm3.23-5,16.3,10.22,2-3.15-16.3-10.21Zm3.22-5,39.31,22.32,1.83-3.22L434.59,278.3Zm3-5.09,50.06,25.48,1.68-3.3-50.06-25.48Zm2.85-5.5,59.15,25.72,1.59-3.66-59.15-25.71Zm2.49-4.89,70.39,26,1.29-3.5-70.39-26Zm1.48-5.75,57.92,18.85,1.33-4.09L443.9,256.19Zm1.62-5.93,38.39,11.08,1-3.56-38.4-11.08Zm2-5.39,19.58,4.45.82-3.62-19.58-4.44Zm1.37-5.66,11.75,2.13.66-3.65-11.75-2.13Zm.94-5.7,15.53,1.89.44-3.69L449,233.93Zm.78-6,22,1.57.27-3.69-22-1.58Zm.51-5.65,14.53.27.07-3.71-14.53-.27Zm-.09-5.87,21.81-.89-.15-3.71-21.81.9Zm-.16-5.92,33.61-2.79-.31-3.69-33.6,2.78Zm-.15-5.79,57.37-6.89-.44-3.68L449,204.73Zm-.64-6L493,194.75l-.63-3.66-44.17,7.65Zm-.9-5.73,21-4.55-.79-3.63-21,4.56Zm-1.41-5.77,10.86-2.83-.94-3.59-10.86,2.84Zm-1.41-5.74L457,181.48l-1.09-3.55L444,181.61Zm-1.66-5.67,8-2.85-1.25-3.5-8,2.86Zm-1.89-5.55,10.84-4.52-1.53-3.68L440,170.25Zm-1.8-5.19,14.47-7-1.63-3.35-14.46,7Zm-3.12-5.05,27.88-14.88-2-3.8-27.88,14.87Zm-3.15-5.28L466,139.6l-1.86-3.21L431.59,155.2Zm-2.47-5.2,47.88-31.5-2-3.1-47.89,31.5Zm-3.13-4.92L465.55,121l-2.18-3-37.69,27.24Zm-3.46-4.62L442,129.27l-2.34-2.88-17.65,14.4ZM420.63,139l11.83-10.66L430,125.54l-11.83,10.67Zm-3.72-4.28,20-20-2.63-2.62-20,20Zm-4.29-4,8.41-9.5-2.77-2.45-8.42,9.49Zm-4.38-4L451.93,73l-2.88-2.34-43.69,53.68Zm-4.28-3.9,33.65-44.6-3-2.23L401,120.55Zm-4.78-3.71,12.63-18.68-3.07-2.08L396.11,117Zm-4.76-3.32,9.49-15.4-3.16-1.94-9.49,15.4Zm-5.13-3,6.23-11.13-3.23-1.81L386.05,111Zm-5.12-3,8.92-17.69-3.32-1.67-8.91,17.69Zm-5.23-2.74,12.93-28.85-3.39-1.52-12.93,28.85Zm-5-2.27,22.51-58.47-3.72-1.43-22.51,58.47Zm-5-2.28,15.24-47.45-3.56-1.14-15.24,47.45Zm-5.82-1.23,5.15-18.44-4.15-1.16L359,100.13Zm-6-1.36,5.48-22.55-3.6-.88-5.48,22.55Zm-5.47-1.81,6-32.71L354,64.74l-6,32.71ZM346,97l2-14.5L344.3,82l-2,14.5Zm-5.74-.69,1.87-23.88-3.69-.29L336.56,96Zm-6-.53,1.1-38.52-3.7-.11-1.11,38.52Zm-5.67-.27L327.32,42.4l-3.7.09,1.26,53.09Zm-5.86.34L316.31,19.2l-3.69.31L319,96.14Zm-5.92.41-6.56-52.13-3.68.46,6.57,52.13Zm-5.77.4L305,59.9l-3.66.6,6,36.74Zm-6,.89L301.12,79.4l-3.63.78,3.94,18.14Zm-5.69,1.15-3-11.55-3.59.94,3,11.55Zm-5.7,1.66L288.5,83.49,285,84.58l5.17,16.84ZM288,102l-5.2-14.63-3.5,1.24,5.2,14.63Zm-5.6,1.89-4.5-11.06-3.44,1.4L279,105.28Zm44.68-4.59a118.84,118.84,0,0,0-46.66,9.47l1.2,3A116.14,116.14,0,1,1,215.2,249.88l-3.06.92A119.34,119.34,0,1,0,327.07,99.29Z"/></svg>