<svg id="Layer_1" data-name="Layer 1" xmlns="http://www.w3.org/2000/svg" xmlns:xlink="http://www.w3.org/1999/xlink" viewBox="0 0 532.66 413.02"><defs><style>.cls-1{font-size:63.26px;font-family:Baloo-Regular, Baloo;}.cls-1,.cls-5{fill:#1e1c58;}.cls-2{letter-spacing:0em;}.cls-3{letter-spacing:0em;}.cls-4{letter-spacing:0em;}.cls-5{font-size:37.56px;font-family:Geneva;letter-spacing:0.09em;}.cls-6{fill:url(#linear-gradient);}</style><linearGradient id="linear-gradient" x1="145.82" y1="204.37" x2="493.93" y2="204.37" gradientUnits="userSpaceOnUse"><stop offset="0" stop-color="#53449b"/><stop offset="0.52" stop-color="#de4599"/><stop offset="1" stop-color="#f48226"/></linearGradient></defs><text class="cls-1" transform="translate(33.73 214.16)"><tspan class="cls-2">S</tspan><tspan x="35.11" y="0">OUND</tspan><tspan class="cls-3" x="206.68" y="0">E</tspan><tspan class="cls-4" x="241.6" y="0">MIC</tspan></text><text class="cls-5" transform="translate(256.2 253.58)">social</text><path class="cls-6" d="M190.29,253.54,147,266.6l-1.15-3.82,43.32-13Zm.4,1.42-31,11.28,1.27,3.51,31-11.28Zm2.3,5.45L147.64,279l1.63,4,45.35-18.54Zm2.6,5.57-18.36,8.24,1.51,3.38,18.37-8.23Zm1.92,5.43-10.58,5.51,1.71,3.29,10.58-5.51Zm2.61,5.21-14.81,8.56,1.85,3.21L202,279.84Zm3,5L180.2,296.64l2,3.1,22.89-15.07Zm3.26,5.06L196,294.19l2.19,3,10.32-7.55Zm3.26,4.64-27.56,22.48,2.34,2.87L212,294.15Zm3.87,4.42-12.61,11.59,2.52,2.73L216,298.43Zm4,4.42L208,309.6l2.62,2.62,9.48-9.48Zm3.85,4.31-44.47,47.88,2.72,2.52L224,307Zm4.38,4.19L176.4,367.5l2.84,2.38L228.5,311Zm4.39,3.78-13.61,17.76,2.94,2.25L233,314.66Zm4.81,3.49-8.72,12.41,3,2.13,8.72-12.4Zm4.79,3.47-7.06,11,3.13,2,7.05-11Zm4.92,3.26-24.11,41.77,3.21,1.86,24.11-41.77Zm5.26,3-27.77,56.64,3.57,1.76,27.78-56.65Zm4.93,2.35-3.52,8.32,3.44,1.45,3.51-8.32Zm5.52,2.1-8,21.19,4,1.52,8-21.19Zm5.85,1.89-9.89,29.18,3.51,1.19,9.89-29.18Zm5.29,2.28-2.95,10.71,3.57,1,3-10.71Zm5.59,1.64-3.11,13.62,3.61.83,3.12-13.63Zm5.65,1.19L279,358.67l3.65.62,3.64-21.63Zm5.93,1.06-3.44,29.22,3.68.43,3.44-29.22Zm5.62.77-2.57,39.75,3.7.24,2.57-39.75Zm5.87.18-.15,31.56,3.71,0,.15-31.56Zm5.93.11.74,20.14,3.7-.13L309.71,339Zm5.78.11.9,12.18,3.7-.28-.9-12.17Zm6-.36L321,363.74l3.68-.47-3.14-24.82Zm5.77-.64,9,53.41,3.66-.62-9.05-53.41Zm5.83-1.15,3.18,15,3.62-.77-3.18-15Zm5.8-1.14,3.71,14.35,3.59-.93-3.71-14.35Zm5.74-1.39,5.94,19.28,3.54-1.09-5.94-19.28Zm6.07-1.1,4.42,12.29,3.75-1.35-4.42-12.29Zm5.27-1.54,6,14,3.43-1.46-6-14Zm5.2-2.87,5.09,10.79,3.9-1.84-5.09-10.79Zm5.42-2.89,13,25.31,3.3-1.69-13-25.31Zm5.32-2.21,21,35.58,3.2-1.88-21-35.58Zm5.07-2.88,29,44.62,3.11-2-29-44.62Zm4.79-3.22L417.23,371l3-2.2-39.12-53.12Zm4.88-3.52,30.63,37.55,2.87-2.34L385.86,312Zm4.63-3.5,21.5,23.71,2.75-2.5-21.51-23.7Zm4.05-4.1,14.46,14.15,2.6-2.65-14.47-14.15Zm4.2-4.18,12.23,11,2.48-2.75-12.23-11Zm4.1-4.08,6.8,5.68,2.37-2.85-6.79-5.67Zm3.95-4.58,8,6,2.23-3-8-6Zm3.55-4.59,14.31,9.82,2.1-3-14.31-9.83Zm3.23-5L427,294.56l2-3.14-16.3-10.22Zm3.21-5,39.32,22.32,1.83-3.22-39.31-22.32Zm3-5.09L467,299.77l1.68-3.31L418.59,271Zm2.85-5.5,59.15,25.71,1.58-3.65-59.14-25.71Zm2.49-4.89,70.39,26,1.29-3.5-70.39-26Zm1.48-5.75L481.65,277l1.33-4.1-57.92-18.85Zm1.61-5.93,38.4,11.08,1-3.56-38.4-11.08Zm2.05-5.39L447,251.28l.82-3.62-19.58-4.45Zm1.37-5.66,11.75,2.12.66-3.64-11.75-2.13Zm.94-5.7,15.53,1.88.44-3.68-15.52-1.88Zm.78-6,22,1.57.27-3.7-22-1.57Zm.51-5.65,14.52.27.07-3.71-14.52-.27ZM430.9,218l21.81-.89-.15-3.71-21.81.89Zm-.16-5.93,33.61-2.78-.31-3.7-33.6,2.79Zm-.15-5.78L488,199.38l-.44-3.68-57.38,6.89Zm-.64-6,44.17-7.65-.63-3.65-44.17,7.65Zm-.9-5.73L450,190l-.78-3.62-21,4.56Zm-1.42-5.77,10.86-2.83-.93-3.59-10.86,2.83Zm-1.4-5.74,11.92-3.68-1.09-3.54-11.93,3.68Zm-1.66-5.67,8-2.86L431.27,171l-7.95,2.86Zm-1.89-5.56,10.84-4.52L432,163.59l-10.84,4.52Zm-1.8-5.18,14.46-7-1.62-3.35-14.47,7Zm-3.12-5,27.87-14.88-2-3.81-27.87,14.88Zm-3.16-5.28,32.56-18.81-1.86-3.21-32.55,18.81Zm-2.46-5.2L460,119.57l-2-3.1L410.1,148ZM409,146.15,446.7,118.9l-2.17-3-37.7,27.24Zm-3.46-4.63,17.65-14.4-2.34-2.87-17.65,14.4Zm-3.76-4.7,11.83-10.66-2.48-2.76-11.83,10.67Zm-3.72-4.28,20-20-2.63-2.62-20,20Zm-4.29-4,8.41-9.5-2.78-2.46-8.41,9.5Zm-4.38-4,43.69-53.68-2.88-2.34L386.52,122.2Zm-4.28-3.9L418.77,76l-3-2.24-33.65,44.61Zm-4.78-3.71L393,98.25l-3.08-2.08-12.62,18.68Zm-4.76-3.32,9.48-15.4-3.15-1.94-9.49,15.39Zm-5.14-3,6.24-11.13-3.24-1.81-6.23,11.13Zm-5.11-3L374.24,90l-3.31-1.67L362,106Zm-5.24-2.74L373,76.08l-3.38-1.52-12.93,28.85Zm-5-2.27,22.51-58.47-3.72-1.43-22.51,58.47Zm-5-2.28,15.24-47.45-3.55-1.14L346.58,99.24Zm-5.81-1.23,5.15-18.45-4.15-1.15L340.17,98Zm-6-1.37,5.48-22.55-3.6-.87-5.48,22.55ZM332.86,96l6-32.7-3.64-.67-6,32.71Zm-5.72-1.13,2-14.5-3.68-.5-2,14.5Zm-5.73-.69,1.87-23.88L319.59,70l-1.87,23.88Zm-6-.53,1.1-38.52-3.7-.11-1.11,38.52Zm-5.67-.27-1.27-53.09-3.71.09L306,93.44Zm-5.86.34-6.42-76.64-3.69.31L300.19,94ZM298,94.1,291.41,42l-3.68.47,6.56,52.13Zm-5.77.4-6-36.74-3.66.6,6,36.74Zm-6,.89-3.94-18.13-3.62.78,3.94,18.14Zm-5.68,1.15L277.5,85l-3.59.94,3,11.55Zm-5.71,1.66-5.17-16.85-3.54,1.09,5.17,16.84Zm-5.67,1.65L264,85.21l-3.5,1.25,5.2,14.63Zm-5.6,1.89L259,90.68l-3.43,1.4,4.51,11.06Zm44.68-4.59a118.93,118.93,0,0,0-46.67,9.47l1.21,3a116.14,116.14,0,1,1-66.41,138.16l-3.06.92A119.34,119.34,0,1,0,308.23,97.15Z"/></svg>